<?xml version="1.0" standalone="no"?>
<!DOCTYPE svg PUBLIC "-//W3C//DTD SVG 20010904//EN"
 "http://www.w3.org/TR/2001/REC-SVG-20010904/DTD/svg10.dtd">
<svg version="1.0" xmlns="http://www.w3.org/2000/svg"
 width="400.000000pt" height="400.000000pt" viewBox="0 0 400.000000 400.000000"
 preserveAspectRatio="xMidYMid meet">

<g transform="translate(0.000000,400.000000) scale(0.100000,-0.100000)"
fill="#000000" stroke="none">
<path d="M1589 2028 c0 -90 -3 -157 -6 -150 -2 6 -15 12 -28 12 -27 0 -35 17
-35 76 0 42 1 44 30 44 28 0 30 3 30 35 0 32 -2 35 -30 35 -28 0 -30 3 -30 35
l0 35 -50 0 -50 0 0 -35 c0 -28 -4 -35 -20 -35 -11 0 -20 -4 -20 -9 0 -5 -22
0 -49 12 -44 18 -55 19 -91 8 -65 -19 -103 -59 -109 -116 -7 -55 -6 -56 -56
60 -62 144 -54 135 -110 135 l-50 0 -49 -112 c-27 -62 -60 -136 -73 -164 -32
-70 -30 -74 22 -74 42 0 47 3 62 35 l17 36 75 -3 75 -3 10 -32 c9 -32 11 -33
62 -33 59 0 59 1 43 33 l-12 22 25 -22 c43 -40 178 -48 213 -12 13 12 11 18
-9 44 -20 24 -27 28 -37 18 -21 -20 -83 -16 -104 7 -18 20 -17 20 82 20 l101
0 5 -28 c14 -70 56 -89 187 -84 l80 4 0 84 c0 77 2 85 24 99 19 13 29 14 45 5
19 -10 21 -20 21 -100 l0 -90 118 0 c64 1 124 0 132 -1 37 -5 80 2 100 19 l21
17 -21 28 c-17 22 -25 25 -40 17 -24 -13 -66 -13 -91 0 -39 21 -17 30 76 30
l95 0 0 -55 0 -55 45 0 45 0 0 79 c0 71 2 80 23 93 27 18 77 28 77 16 0 -5 9
-4 20 2 32 17 104 9 108 -12 3 -15 -5 -18 -53 -18 -49 0 -60 -4 -86 -29 -31
-32 -36 -55 -18 -95 17 -37 102 -51 150 -25 13 6 19 6 19 -1 0 -5 20 -10 45
-10 l45 0 0 89 c0 116 -11 145 -64 170 -48 24 -88 26 -136 9 -26 -9 -35 -9
-38 0 -5 16 -21 15 -57 -4 -19 -10 -31 -11 -33 -5 -2 6 -24 11 -48 11 l-44 0
0 -42 -1 -43 -16 27 c-18 29 -88 68 -122 68 -12 0 -37 -7 -56 -14 -19 -8 -35
-11 -35 -5 0 5 -13 9 -29 9 -21 0 -30 -6 -35 -22 -9 -36 -7 -40 13 -33 19 6
19 4 5 -47 -8 -29 -21 -71 -29 -93 l-16 -40 6 64 5 63 -26 -6 c-26 -7 -27 -7
-20 36 11 73 15 114 10 96 -4 -13 -13 -15 -38 -11 -20 3 -45 -1 -64 -11 l-32
-17 0 61 0 60 -50 0 -50 0 -1 -162z m-583 -65 c-2 -2 -22 -3 -44 -1 l-40 3 21
55 20 54 24 -53 c13 -30 21 -56 19 -58z m302 51 c35 -24 26 -34 -33 -34 -30 0
-55 4 -55 9 0 12 40 41 55 41 6 0 21 -7 33 -16z m754 -1 c29 -26 22 -33 -32
-33 -53 0 -68 18 -32 39 25 15 43 13 64 -6z m428 -103 c0 -12 -10 -25 -25 -32
-21 -9 -29 -9 -42 5 -22 22 -2 47 38 47 22 0 29 -5 29 -20z"/>
<path d="M2728 2084 c-16 -8 -28 -10 -28 -4 0 5 -20 10 -45 10 l-45 0 0 -185
0 -185 45 0 45 0 0 59 0 59 36 -13 c48 -16 110 -3 141 31 l23 25 0 -80 0 -81
50 0 50 0 0 61 c0 53 2 60 15 49 21 -17 102 -14 131 5 91 60 80 201 -19 249
-43 20 -64 20 -102 0 -19 -10 -31 -11 -33 -5 -2 6 -24 11 -48 11 -43 0 -44 -1
-44 -32 0 -27 -2 -30 -12 -16 -20 26 -81 58 -108 58 -14 -1 -37 -8 -52 -16z
m59 -72 c18 -11 30 -54 23 -82 -14 -58 -110 -43 -110 18 0 54 48 89 87 64z
m307 -14 c44 -63 -21 -141 -76 -91 -37 33 -11 113 37 113 13 0 31 -10 39 -22z"/>
</g>
</svg>
